<?xml version="1.0" encoding="UTF-8" standalone="no"?>
<!-- Generator: Adobe Illustrator 19.0.0, SVG Export Plug-In . SVG Version: 6.00 Build 0)  -->

<!-- License: CC0. Made by SVG Repo: https://www.svgrepo.com/svg/251524/coke -->

<svg
   version="1.1"
   id="Layer_1"
   x="0px"
   y="0px"
   viewBox="0 0 512 512"
   style="enable-background:new 0 0 512 512;"
   xml:space="preserve"
   sodipodi:docname="coke2.svg"
   inkscape:version="1.2.2 (b0a8486541, 2022-12-01)"
   xmlns:inkscape="http://www.inkscape.org/namespaces/inkscape"
   xmlns:sodipodi="http://sodipodi.sourceforge.net/DTD/sodipodi-0.dtd"
   xmlns="http://www.w3.org/2000/svg"
   xmlns:svg="http://www.w3.org/2000/svg"><defs
   id="defs57" /><sodipodi:namedview
   id="namedview55"
   pagecolor="#ffffff"
   bordercolor="#000000"
   borderopacity="0.25"
   inkscape:showpageshadow="2"
   inkscape:pageopacity="0.0"
   inkscape:pagecheckerboard="0"
   inkscape:deskcolor="#d1d1d1"
   showgrid="false"
   inkscape:zoom="1.5917969"
   inkscape:cx="177.7865"
   inkscape:cy="237.7816"
   inkscape:window-width="1910"
   inkscape:window-height="1003"
   inkscape:window-x="0"
   inkscape:window-y="41"
   inkscape:window-maximized="1"
   inkscape:current-layer="Layer_1" />
<polygon
   style="fill:#ef431d"
   points="233.495,331.956 177.231,354.462 177.231,174.418 233.495,196.923 "
   id="polygon2"
   transform="translate(125.6595,0.92016871)" />
<polygon
   style="fill:#fd7555"
   points="199.736,354.462 25.319,331.956 25.319,196.923 199.736,174.418 "
   id="polygon4"
   transform="translate(125.6595,0.92016871)" />
<g
   id="g10"
   transform="translate(125.6595,0.92016871)">
	<path
   style="fill:#3f4c53"
   d="M 165.978,95.648 H 132.22 l 67.516,101.275 h 33.758 v -33.758 c 0.001,-37.134 -30.382,-67.517 -67.516,-67.517 z"
   id="path6" />
	<path
   style="fill:#3f4c53"
   d="m 199.736,331.956 -17.824,175.667 c 4.996,2.791 10.746,4.377 16.879,4.377 19.163,0 34.703,-15.529 34.703,-34.692 V 331.956 Z"
   id="path8" />
</g>


<polygon
   style="fill:#ef431d"
   points="177.231,61.89 143.473,61.89 109.714,30.945 143.473,0 177.231,0 "
   id="polygon22"
   transform="translate(125.6595,0.92016871)" />

<g
   id="g36"
   transform="translate(125.6595,0.92016871)">
	<path
   style="fill:#975d50"
   d="m 199.736,331.956 v 145.352 c 0,13.042 -7.191,24.396 -17.824,30.315 C 171.289,501.704 164.099,490.35 164.099,477.308 164.099,496.471 148.57,512 129.407,512 110.244,512 94.704,496.471 94.704,477.308 94.704,496.471 79.175,512 60.012,512 40.849,512 25.32,496.471 25.32,477.308 V 331.956 Z"
   id="path32" />
	<path
   style="fill:#975d50"
   d="m 199.736,163.165 v 33.758 H 25.319 v -33.758 c 0,-37.134 30.382,-67.516 67.516,-67.516 h 39.385 c 37.134,-0.001 67.516,30.382 67.516,67.516 z"
   id="path34" />
</g>

<rect
   x="207.2415"
   style="fill:#fd7555"
   width="61.889999"
   height="61.889999"
   id="rect40"
   y="0.9201687" />
<g
   id="g48"
   transform="translate(125.6595,0.92016871)">
	<circle
   style="fill:#cb9385"
   cx="128.461"
   cy="387.74701"
   r="8.4399996"
   id="circle42" />
	<circle
   style="fill:#cb9385"
   cx="165.978"
   cy="146.286"
   r="8.4399996"
   id="circle44" />
	<circle
   style="fill:#cb9385"
   cx="94.703003"
   cy="421.505"
   r="8.4399996"
   id="circle46" />
</g>
<path
   style="fill:#ef431d"
   d="m 305.6985,71.250169 h -101.274 c -4.661,0 -8.44,-3.779 -8.44,-8.44 0,-4.661 3.779,-8.44 8.44,-8.44 h 101.275 c 4.661,0 8.44,3.779 8.44,8.44 0,4.661 -3.78,8.44 -8.441,8.44 z"
   id="path50" />

</svg>
